<?xml version="1.0" encoding="UTF-8" standalone="no"?>
<!-- Created with Inkscape (http://www.inkscape.org/) -->

<svg
   xmlns:dc="http://purl.org/dc/elements/1.1/"
   xmlns:cc="http://creativecommons.org/ns#"
   xmlns:rdf="http://www.w3.org/1999/02/22-rdf-syntax-ns#"
   xmlns:svg="http://www.w3.org/2000/svg"
   xmlns="http://www.w3.org/2000/svg"
   xmlns:sodipodi="http://sodipodi.sourceforge.net/DTD/sodipodi-0.dtd"
   xmlns:inkscape="http://www.inkscape.org/namespaces/inkscape"
   width="73.541908mm"
   height="32.1325mm"
   viewBox="0 0 73.541908 32.1325"
   version="1.1"
   id="svg5175"
   inkscape:version="0.92.4 (unknown)"
   sodipodi:docname="logo.svg">
  <defs
     id="defs5169" />
  <sodipodi:namedview
     id="base"
     pagecolor="#ffffff"
     bordercolor="#666666"
     borderopacity="1.0"
     inkscape:pageopacity="0.0"
     inkscape:pageshadow="2"
     inkscape:zoom="3.2256754"
     inkscape:cx="147.24742"
     inkscape:cy="47.872427"
     inkscape:document-units="mm"
     inkscape:current-layer="text823-2"
     showgrid="false"
     fit-margin-top="3"
     fit-margin-left="3"
     fit-margin-right="3"
     fit-margin-bottom="3"
     inkscape:window-width="1920"
     inkscape:window-height="1016"
     inkscape:window-x="0"
     inkscape:window-y="27"
     inkscape:window-maximized="1" />
  <metadata
     id="metadata5172">
    <rdf:RDF>
      <cc:Work
         rdf:about="">
        <dc:format>image/svg+xml</dc:format>
        <dc:type
           rdf:resource="http://purl.org/dc/dcmitype/StillImage" />
        <dc:title />
      </cc:Work>
    </rdf:RDF>
  </metadata>
  <g
     inkscape:label="Layer 1"
     inkscape:groupmode="layer"
     id="layer1"
     transform="translate(-27.003934,-128.53375)">
    <g
       aria-label="sorg"
       style="font-style:normal;font-variant:normal;font-weight:normal;font-stretch:normal;font-size:25.23242378px;line-height:1.25;font-family:'Latin Modern Math';-inkscape-font-specification:'Latin Modern Math';letter-spacing:0px;word-spacing:0px;fill:#ffffff;fill-opacity:1;stroke:none;stroke-width:0.63081062"
       id="text823-2">
      <g
         id="g5274">
        <path
           transform="matrix(0.26458333,0,0,0.26458333,27.003934,128.53375)"
           id="path851-1-0"
           d="M 112.14062 14.847656 C 104.91099 14.847656 98.449196 16.473259 92.755859 19.726562 C 88.39212 22.150886 84.77763 25.325486 81.900391 29.236328 C 79.268861 26.111452 76.110713 23.512878 72.410156 21.457031 C 66.807222 18.20369 60.4361 16.576172 53.296875 16.576172 C 46.067251 16.576172 39.605423 18.20369 33.912109 21.457031 C 28.218814 24.619967 23.791883 29.046943 20.628906 34.740234 C 17.465944 40.433564 15.884766 46.941757 15.884766 54.261719 C 15.884766 61.49135 17.465944 67.95124 20.628906 73.644531 C 23.791883 79.33786 28.218814 83.811149 33.912109 87.064453 C 39.605423 90.227426 46.067251 91.810547 53.296875 91.810547 C 60.52648 91.810547 66.943941 90.227426 72.546875 87.064453 C 76.876523 84.590399 80.469679 81.408615 83.335938 77.523438 C 85.953312 80.631332 89.088662 83.240377 92.755859 85.335938 C 98.449196 88.498911 104.91099 90.080078 112.14062 90.080078 C 119.37023 90.080078 125.78574 88.498911 131.38867 85.335938 C 135.17254 83.17372 138.3846 80.460681 141.05078 77.220703 C 143.82097 80.77172 147.2198 83.717931 151.27148 86.033203 C 156.96482 89.196176 163.42467 90.777344 170.6543 90.777344 C 176.89092 90.777344 182.52076 89.59401 187.54688 87.240234 C 187.52721 87.627293 187.50195 88.011974 187.50195 88.40625 C 187.50195 93.133985 188.95031 97.35897 191.84961 101.08203 C 194.74896 104.80505 198.80858 107.73188 204.02734 109.85938 C 209.24609 111.92772 215.16988 112.96094 221.79688 112.96094 C 228.42388 112.96094 234.30551 111.92772 239.44141 109.85938 C 244.66016 107.73188 248.71785 104.80505 251.61719 101.08203 C 254.51649 97.35897 255.9668 93.133985 255.9668 88.40625 C 255.9668 88.320398 255.95799 88.237853 255.95703 88.152344 L 257.4082 61.160156 C 257.8 58.805996 258.00586 56.36282 258.00586 53.818359 C 258.00586 46.498359 256.38029 39.992119 253.12695 34.298828 C 249.96401 28.605537 245.53513 24.176645 239.8418 21.013672 C 234.23886 17.760368 227.86774 16.132812 220.72852 16.132812 C 213.49889 16.132812 207.03708 17.760368 201.34375 21.013672 C 199.37487 22.107503 197.56861 23.363318 195.90234 24.759766 C 194.05182 23.120535 192.011 21.670163 189.76758 20.423828 C 184.16464 17.170486 177.79353 15.542969 170.6543 15.542969 C 163.42467 15.542969 156.96482 17.170486 151.27148 20.423828 C 147.45629 22.543375 144.22189 25.244153 141.54297 28.5 C 138.76066 24.927965 135.33884 21.995979 131.25391 19.726562 C 125.65097 16.473259 119.27985 14.847656 112.14062 14.847656 z "
           style="font-style:normal;font-variant:normal;font-weight:bold;font-stretch:normal;font-size:50.55459976px;line-height:1.25;font-family:Comfortaa;-inkscape-font-specification:'Comfortaa, Bold';font-variant-ligatures:normal;font-variant-caps:normal;font-variant-numeric:normal;font-feature-settings:normal;text-align:start;letter-spacing:0px;word-spacing:0px;writing-mode:lr-tb;text-anchor:start;fill:#8db7f0;fill-opacity:1;stroke:none;stroke-width:3.38888264;stroke-opacity:1" />
        <path
           id="path5259"
           style="font-style:normal;font-variant:normal;font-weight:bold;font-stretch:normal;font-size:25.23242378px;font-family:Comfortaa;-inkscape-font-specification:'Comfortaa, Bold';font-variant-ligatures:normal;font-variant-caps:normal;font-variant-numeric:normal;font-feature-settings:normal;text-align:start;writing-mode:lr-tb;text-anchor:start;fill:#ffffff;fill-opacity:1;stroke-width:0.63081062"
           d="m 40.818206,149.53442 q -1.715805,0 -3.22975,-0.52988 -1.513946,-0.52989 -2.371848,-1.38779 -0.328022,-0.32802 -0.328022,-0.7822 0,-0.60558 0.504649,-0.98407 0.479416,-0.35325 0.883135,-0.35325 0.504648,0 0.958832,0.45418 0.479416,0.52988 1.438248,0.9336 0.958832,0.37849 2.043826,0.37849 1.438248,0 2.220453,-0.47942 0.807438,-0.47941 0.807438,-1.28685 0,-0.78221 -0.782205,-1.28685 -0.782205,-0.52989 -2.649405,-0.88314 -4.844625,-0.9336 -4.844625,-3.98672 0,-1.23639 0.73174,-2.09429 0.731741,-0.85791 1.917664,-1.28686 1.185924,-0.42895 2.523243,-0.42895 1.640107,0 2.926961,0.52988 1.312086,0.52988 2.069059,1.46348 0.328021,0.40372 0.328021,0.80744 0,0.42895 -0.428951,0.78221 -0.277557,0.20186 -0.706508,0.20186 -0.656043,0 -1.185924,-0.47942 -0.63081,-0.58035 -1.337318,-0.80744 -0.706508,-0.25232 -1.715805,-0.25232 -1.160692,0 -1.917664,0.40372 -0.731741,0.37848 -0.731741,1.08499 0,0.50465 0.252325,0.8579 0.252324,0.32802 0.958832,0.63081 0.706508,0.27756 2.043826,0.55512 2.750334,0.55511 3.885793,1.53917 1.160692,0.98407 1.160692,2.54848 0,1.16069 -0.630811,2.11952 -0.63081,0.9336 -1.867199,1.48872 -1.211156,0.52988 -2.926961,0.52988 z" />
        <path
           id="path5261"
           style="font-style:normal;font-variant:normal;font-weight:bold;font-stretch:normal;font-size:25.23242378px;font-family:Comfortaa;-inkscape-font-specification:'Comfortaa, Bold';font-variant-ligatures:normal;font-variant-caps:normal;font-variant-numeric:normal;font-feature-settings:normal;text-align:start;writing-mode:lr-tb;text-anchor:start;fill:#ffffff;fill-opacity:1;stroke-width:0.63081062"
           d="m 56.603412,149.53442 q -2.018594,0 -3.608236,-0.88314 -1.589643,-0.90837 -2.472778,-2.49801 -0.883135,-1.58964 -0.883135,-3.60823 0,-2.04383 0.883135,-3.63347 0.883135,-1.58965 2.472778,-2.47278 1.589642,-0.90837 3.608236,-0.90837 1.993362,0 3.557772,0.90837 1.589643,0.88313 2.472777,2.47278 0.908368,1.58964 0.908368,3.63347 0,2.01859 -0.883135,3.60823 -0.883135,1.58964 -2.472778,2.49801 -1.56441,0.88314 -3.583004,0.88314 z m 0,-2.27092 q 1.286854,0 2.296151,-0.60558 1.034529,-0.60558 1.589642,-1.66534 0.580346,-1.08499 0.580346,-2.44754 0,-1.36256 -0.580346,-2.44755 -0.555113,-1.08499 -1.589642,-1.69057 -1.009297,-0.60558 -2.296151,-0.60558 -1.286853,0 -2.321383,0.60558 -1.009297,0.60558 -1.589643,1.69057 -0.580345,1.08499 -0.580345,2.44755 0,1.36255 0.580345,2.44754 0.580346,1.05976 1.589643,1.66534 1.03453,0.60558 2.321383,0.60558 z" />
        <path
           id="path5263"
           style="font-style:normal;font-variant:normal;font-weight:bold;font-stretch:normal;font-size:25.23242378px;font-family:Comfortaa;-inkscape-font-specification:'Comfortaa, Bold';font-variant-ligatures:normal;font-variant-caps:normal;font-variant-numeric:normal;font-feature-settings:normal;text-align:start;writing-mode:lr-tb;text-anchor:start;fill:#ffffff;fill-opacity:1;stroke-width:0.63081062"
           d="m 74.30106,135.47996 q 1.337319,0 2.094292,0.40372 0.756972,0.40371 0.756972,1.00929 0,0.17663 -0.02523,0.25233 -0.227092,0.80743 -1.009297,0.80743 -0.126162,0 -0.378486,-0.0505 -1.009297,-0.17663 -1.640108,-0.17663 -1.816734,0 -2.926961,0.83267 -1.110227,0.83267 -1.110227,2.24569 v 7.36787 q 0,0.60557 -0.328021,0.9336 -0.302789,0.32802 -0.9336,0.32802 -0.605578,0 -0.9336,-0.30279 -0.328021,-0.32802 -0.328021,-0.95883 v -11.2789 q 0,-0.60558 0.328021,-0.9336 0.328022,-0.32802 0.9336,-0.32802 1.261621,0 1.261621,1.26162 v 0.47942 q 0.756973,-0.88314 1.8672,-1.38778 1.110226,-0.50465 2.371847,-0.50465 z" />
        <path
           id="path5265"
           style="font-style:normal;font-variant:normal;font-weight:bold;font-stretch:normal;font-size:25.23242378px;font-family:Comfortaa;-inkscape-font-specification:'Comfortaa, Bold';font-variant-ligatures:normal;font-variant-caps:normal;font-variant-numeric:normal;font-feature-settings:normal;text-align:start;writing-mode:lr-tb;text-anchor:start;fill:#ffffff;fill-opacity:1;stroke-width:0.63081062"
           d="m 85.082007,135.53042 q 1.993361,0 3.557772,0.90837 1.589642,0.88313 2.472777,2.47278 0.908368,1.58964 0.908368,3.63347 v 5.4502 q 0,1.99336 -0.883135,3.63347 -0.883135,1.64011 -2.49801,2.57371 -1.589643,0.95883 -3.608237,0.95883 -1.816734,0 -3.381145,-0.73174 -1.56441,-0.70651 -2.624172,-2.04383 -0.277556,-0.35325 -0.277556,-0.70651 0,-0.52988 0.52988,-0.90836 0.353254,-0.2271 0.706508,-0.2271 0.630811,0 1.03453,0.52988 0.681275,0.88314 1.715805,1.33732 1.034529,0.47942 2.346615,0.47942 1.236389,0 2.245686,-0.60558 1.009297,-0.58034 1.614875,-1.74104 0.605578,-1.13546 0.605578,-2.7251 v -1.23639 q -0.782205,1.38779 -2.069059,2.16999 -1.286853,0.78221 -2.901729,0.78221 -1.867199,0 -3.355912,-0.88314 -1.46348,-0.90837 -2.29615,-2.49801 -0.807438,-1.58964 -0.807438,-3.60823 0,-2.04383 0.883135,-3.63347 0.883135,-1.58965 2.472777,-2.47278 1.589643,-0.90837 3.608237,-0.90837 z m 0,11.73308 q 1.286854,0 2.296151,-0.60558 1.034529,-0.60558 1.589642,-1.66534 0.580346,-1.08499 0.580346,-2.44754 0,-1.36256 -0.580346,-2.44755 -0.555113,-1.08499 -1.589642,-1.69057 -1.009297,-0.60558 -2.296151,-0.60558 -1.286854,0 -2.321383,0.60558 -1.009297,0.60558 -1.589643,1.69057 -0.580345,1.08499 -0.580345,2.44755 0,1.36255 0.580345,2.44754 0.580346,1.05976 1.589643,1.66534 1.034529,0.60558 2.321383,0.60558 z" />
      </g>
    </g>
  </g>
</svg>
