<?xml version="1.0" encoding="UTF-8" standalone="no"?>
<!-- Created with Inkscape (http://www.inkscape.org/) -->

<svg
   xmlns:dc="http://purl.org/dc/elements/1.1/"
   xmlns:cc="http://creativecommons.org/ns#"
   xmlns:rdf="http://www.w3.org/1999/02/22-rdf-syntax-ns#"
   xmlns:svg="http://www.w3.org/2000/svg"
   xmlns="http://www.w3.org/2000/svg"
   xmlns:sodipodi="http://sodipodi.sourceforge.net/DTD/sodipodi-0.dtd"
   xmlns:inkscape="http://www.inkscape.org/namespaces/inkscape"
   width="73.541908mm"
   height="32.1325mm"
   viewBox="0 0 73.541908 32.1325"
   version="1.1"
   id="svg5175"
   inkscape:version="0.92.4 (unknown)"
   sodipodi:docname="logo-bw.svg">
  <defs
     id="defs5169" />
  <sodipodi:namedview
     id="base"
     pagecolor="#ffffff"
     bordercolor="#666666"
     borderopacity="1.0"
     inkscape:pageopacity="0.0"
     inkscape:pageshadow="2"
     inkscape:zoom="8.9952446"
     inkscape:cx="102.06312"
     inkscape:cy="47.872427"
     inkscape:document-units="mm"
     inkscape:current-layer="text823-2"
     showgrid="false"
     fit-margin-top="3"
     fit-margin-left="3"
     fit-margin-right="3"
     fit-margin-bottom="3"
     inkscape:window-width="1920"
     inkscape:window-height="1016"
     inkscape:window-x="0"
     inkscape:window-y="27"
     inkscape:window-maximized="1" />
  <metadata
     id="metadata5172">
    <rdf:RDF>
      <cc:Work
         rdf:about="">
        <dc:format>image/svg+xml</dc:format>
        <dc:type
           rdf:resource="http://purl.org/dc/dcmitype/StillImage" />
        <dc:title />
      </cc:Work>
    </rdf:RDF>
  </metadata>
  <g
     inkscape:label="Layer 1"
     inkscape:groupmode="layer"
     id="layer1"
     transform="translate(-27.003934,-128.53375)">
    <g
       aria-label="sorg"
       style="font-style:normal;font-variant:normal;font-weight:normal;font-stretch:normal;font-size:25.23242378px;line-height:1.25;font-family:'Latin Modern Math';-inkscape-font-specification:'Latin Modern Math';letter-spacing:0px;word-spacing:0px;fill:#ffffff;fill-opacity:1;stroke:none;stroke-width:0.63081062"
       id="text823-2">
      <g
         id="g9697">
        <path
           id="path851-1-0"
           d="m 56.674473,132.46219 c -1.91284,0 -3.622523,0.43011 -5.128885,1.29088 -1.154573,0.64144 -2.110906,1.48138 -2.872176,2.51613 -0.696259,-0.8268 -1.531852,-1.51433 -2.510958,-2.05828 -1.482443,-0.86078 -3.168135,-1.29139 -5.057055,-1.29139 -1.912838,0 -3.62253,0.43061 -5.128886,1.29139 -1.506351,0.83686 -2.677643,2.00817 -3.514514,3.51452 -0.836867,1.50636 -1.255221,3.22832 -1.255221,5.16506 0,1.91284 0.418354,3.62202 1.255221,5.12837 0.836871,1.50636 2.008163,2.68991 3.514514,3.55068 1.506356,0.83687 3.216048,1.25574 5.128886,1.25574 1.912833,0 3.610786,-0.41887 5.093229,-1.25574 1.145552,-0.65459 2.096242,-1.49644 2.854606,-2.52439 0.692514,0.8223 1.522075,1.51261 2.492354,2.06706 1.506362,0.83687 3.216045,1.25522 5.128885,1.25522 1.912834,0 3.610271,-0.41835 5.092713,-1.25522 1.001149,-0.57209 1.851006,-1.28992 2.556433,-2.14716 0.732946,0.93954 1.63222,1.71906 2.704227,2.33164 1.506363,0.83687 3.215531,1.25522 5.128371,1.25522 1.650106,0 3.139667,-0.31309 4.469495,-0.93586 -0.0052,0.10241 -0.01188,0.20419 -0.01188,0.30851 0,1.25088 0.383212,2.36874 1.150319,3.3538 0.767119,0.98505 1.841227,1.75944 3.222024,2.32234 1.380794,0.54725 2.94813,0.82062 4.701524,0.82062 1.753394,0 3.309575,-0.27337 4.668449,-0.82062 1.380794,-0.5629 2.454391,-1.33729 3.221508,-2.32234 0.767106,-0.98506 1.150834,-2.10292 1.150834,-3.3538 0,-0.0227 -0.0024,-0.0446 -0.0026,-0.0672 l 0.383956,-7.14168 c 0.103664,-0.62287 0.158131,-1.2693 0.158131,-1.94252 0,-1.93675 -0.430099,-3.65819 -1.290879,-5.16454 -0.836861,-1.50635 -2.008669,-2.67816 -3.515029,-3.51503 -1.482444,-0.86077 -3.168136,-1.2914 -5.057055,-1.2914 -1.91284,0 -3.622527,0.43063 -5.128887,1.2914 -0.520933,0.28941 -0.998839,0.62167 -1.439706,0.99115 -0.489617,-0.43371 -1.029584,-0.81746 -1.623156,-1.14722 -1.482444,-0.86078 -3.168134,-1.29139 -5.057055,-1.29139 -1.91284,0 -3.622008,0.43061 -5.128371,1.29139 -1.009436,0.5608 -1.865204,1.27538 -2.574002,2.13682 -0.736152,-0.9451 -1.641509,-1.72085 -2.722313,-2.3213 -1.482445,-0.86077 -3.168137,-1.29088 -5.057058,-1.29088 z"
           style="font-style:normal;font-variant:normal;font-weight:bold;font-stretch:normal;font-size:50.55459976px;line-height:1.25;font-family:Comfortaa;-inkscape-font-specification:'Comfortaa, Bold';font-variant-ligatures:normal;font-variant-caps:normal;font-variant-numeric:normal;font-feature-settings:normal;text-align:start;letter-spacing:0px;word-spacing:0px;writing-mode:lr-tb;text-anchor:start;fill:#999999;fill-opacity:1;stroke:none;stroke-width:0.89664185;stroke-opacity:1"
           inkscape:connector-curvature="0" />
        <path
           id="path5259"
           style="font-style:normal;font-variant:normal;font-weight:bold;font-stretch:normal;font-size:25.23242378px;font-family:Comfortaa;-inkscape-font-specification:'Comfortaa, Bold';font-variant-ligatures:normal;font-variant-caps:normal;font-variant-numeric:normal;font-feature-settings:normal;text-align:start;writing-mode:lr-tb;text-anchor:start;fill:#ffffff;fill-opacity:1;stroke-width:0.63081062"
           d="m 40.818206,149.53442 q -1.715805,0 -3.22975,-0.52988 -1.513946,-0.52989 -2.371848,-1.38779 -0.328022,-0.32802 -0.328022,-0.7822 0,-0.60558 0.504649,-0.98407 0.479416,-0.35325 0.883135,-0.35325 0.504648,0 0.958832,0.45418 0.479416,0.52988 1.438248,0.9336 0.958832,0.37849 2.043826,0.37849 1.438248,0 2.220453,-0.47942 0.807438,-0.47941 0.807438,-1.28685 0,-0.78221 -0.782205,-1.28685 -0.782205,-0.52989 -2.649405,-0.88314 -4.844625,-0.9336 -4.844625,-3.98672 0,-1.23639 0.73174,-2.09429 0.731741,-0.85791 1.917664,-1.28686 1.185924,-0.42895 2.523243,-0.42895 1.640107,0 2.926961,0.52988 1.312086,0.52988 2.069059,1.46348 0.328021,0.40372 0.328021,0.80744 0,0.42895 -0.428951,0.78221 -0.277557,0.20186 -0.706508,0.20186 -0.656043,0 -1.185924,-0.47942 -0.63081,-0.58035 -1.337318,-0.80744 -0.706508,-0.25232 -1.715805,-0.25232 -1.160692,0 -1.917664,0.40372 -0.731741,0.37848 -0.731741,1.08499 0,0.50465 0.252325,0.8579 0.252324,0.32802 0.958832,0.63081 0.706508,0.27756 2.043826,0.55512 2.750334,0.55511 3.885793,1.53917 1.160692,0.98407 1.160692,2.54848 0,1.16069 -0.630811,2.11952 -0.63081,0.9336 -1.867199,1.48872 -1.211156,0.52988 -2.926961,0.52988 z"
           inkscape:connector-curvature="0" />
        <path
           id="path5261"
           style="font-style:normal;font-variant:normal;font-weight:bold;font-stretch:normal;font-size:25.23242378px;font-family:Comfortaa;-inkscape-font-specification:'Comfortaa, Bold';font-variant-ligatures:normal;font-variant-caps:normal;font-variant-numeric:normal;font-feature-settings:normal;text-align:start;writing-mode:lr-tb;text-anchor:start;fill:#ffffff;fill-opacity:1;stroke-width:0.63081062"
           d="m 56.603412,149.53442 q -2.018594,0 -3.608236,-0.88314 -1.589643,-0.90837 -2.472778,-2.49801 -0.883135,-1.58964 -0.883135,-3.60823 0,-2.04383 0.883135,-3.63347 0.883135,-1.58965 2.472778,-2.47278 1.589642,-0.90837 3.608236,-0.90837 1.993362,0 3.557772,0.90837 1.589643,0.88313 2.472777,2.47278 0.908368,1.58964 0.908368,3.63347 0,2.01859 -0.883135,3.60823 -0.883135,1.58964 -2.472778,2.49801 -1.56441,0.88314 -3.583004,0.88314 z m 0,-2.27092 q 1.286854,0 2.296151,-0.60558 1.034529,-0.60558 1.589642,-1.66534 0.580346,-1.08499 0.580346,-2.44754 0,-1.36256 -0.580346,-2.44755 -0.555113,-1.08499 -1.589642,-1.69057 -1.009297,-0.60558 -2.296151,-0.60558 -1.286853,0 -2.321383,0.60558 -1.009297,0.60558 -1.589643,1.69057 -0.580345,1.08499 -0.580345,2.44755 0,1.36255 0.580345,2.44754 0.580346,1.05976 1.589643,1.66534 1.03453,0.60558 2.321383,0.60558 z"
           inkscape:connector-curvature="0" />
        <path
           id="path5263"
           style="font-style:normal;font-variant:normal;font-weight:bold;font-stretch:normal;font-size:25.23242378px;font-family:Comfortaa;-inkscape-font-specification:'Comfortaa, Bold';font-variant-ligatures:normal;font-variant-caps:normal;font-variant-numeric:normal;font-feature-settings:normal;text-align:start;writing-mode:lr-tb;text-anchor:start;fill:#ffffff;fill-opacity:1;stroke-width:0.63081062"
           d="m 74.30106,135.47996 q 1.337319,0 2.094292,0.40372 0.756972,0.40371 0.756972,1.00929 0,0.17663 -0.02523,0.25233 -0.227092,0.80743 -1.009297,0.80743 -0.126162,0 -0.378486,-0.0505 -1.009297,-0.17663 -1.640108,-0.17663 -1.816734,0 -2.926961,0.83267 -1.110227,0.83267 -1.110227,2.24569 v 7.36787 q 0,0.60557 -0.328021,0.9336 -0.302789,0.32802 -0.9336,0.32802 -0.605578,0 -0.9336,-0.30279 -0.328021,-0.32802 -0.328021,-0.95883 v -11.2789 q 0,-0.60558 0.328021,-0.9336 0.328022,-0.32802 0.9336,-0.32802 1.261621,0 1.261621,1.26162 v 0.47942 q 0.756973,-0.88314 1.8672,-1.38778 1.110226,-0.50465 2.371847,-0.50465 z"
           inkscape:connector-curvature="0" />
        <path
           id="path5265"
           style="font-style:normal;font-variant:normal;font-weight:bold;font-stretch:normal;font-size:25.23242378px;font-family:Comfortaa;-inkscape-font-specification:'Comfortaa, Bold';font-variant-ligatures:normal;font-variant-caps:normal;font-variant-numeric:normal;font-feature-settings:normal;text-align:start;writing-mode:lr-tb;text-anchor:start;fill:#ffffff;fill-opacity:1;stroke-width:0.63081062"
           d="m 85.082007,135.53042 q 1.993361,0 3.557772,0.90837 1.589642,0.88313 2.472777,2.47278 0.908368,1.58964 0.908368,3.63347 v 5.4502 q 0,1.99336 -0.883135,3.63347 -0.883135,1.64011 -2.49801,2.57371 -1.589643,0.95883 -3.608237,0.95883 -1.816734,0 -3.381145,-0.73174 -1.56441,-0.70651 -2.624172,-2.04383 -0.277556,-0.35325 -0.277556,-0.70651 0,-0.52988 0.52988,-0.90836 0.353254,-0.2271 0.706508,-0.2271 0.630811,0 1.03453,0.52988 0.681275,0.88314 1.715805,1.33732 1.034529,0.47942 2.346615,0.47942 1.236389,0 2.245686,-0.60558 1.009297,-0.58034 1.614875,-1.74104 0.605578,-1.13546 0.605578,-2.7251 v -1.23639 q -0.782205,1.38779 -2.069059,2.16999 -1.286853,0.78221 -2.901729,0.78221 -1.867199,0 -3.355912,-0.88314 -1.46348,-0.90837 -2.29615,-2.49801 -0.807438,-1.58964 -0.807438,-3.60823 0,-2.04383 0.883135,-3.63347 0.883135,-1.58965 2.472777,-2.47278 1.589643,-0.90837 3.608237,-0.90837 z m 0,11.73308 q 1.286854,0 2.296151,-0.60558 1.034529,-0.60558 1.589642,-1.66534 0.580346,-1.08499 0.580346,-2.44754 0,-1.36256 -0.580346,-2.44755 -0.555113,-1.08499 -1.589642,-1.69057 -1.009297,-0.60558 -2.296151,-0.60558 -1.286854,0 -2.321383,0.60558 -1.009297,0.60558 -1.589643,1.69057 -0.580345,1.08499 -0.580345,2.44755 0,1.36255 0.580345,2.44754 0.580346,1.05976 1.589643,1.66534 1.034529,0.60558 2.321383,0.60558 z"
           inkscape:connector-curvature="0" />
      </g>
    </g>
  </g>
</svg>
