<?xml version="1.0" encoding="UTF-8" standalone="no"?>
<!-- Created with Inkscape (http://www.inkscape.org/) -->

<svg
   xmlns:dc="http://purl.org/dc/elements/1.1/"
   xmlns:cc="http://creativecommons.org/ns#"
   xmlns:rdf="http://www.w3.org/1999/02/22-rdf-syntax-ns#"
   xmlns:svg="http://www.w3.org/2000/svg"
   xmlns="http://www.w3.org/2000/svg"
   xmlns:sodipodi="http://sodipodi.sourceforge.net/DTD/sodipodi-0.dtd"
   xmlns:inkscape="http://www.inkscape.org/namespaces/inkscape"
   width="210mm"
   height="297mm"
   viewBox="0 0 210 297"
   version="1.1"
   id="svg8"
   sodipodi:docname="logo-entwurf.svg"
   inkscape:version="0.92.4 (unknown)">
  <defs
     id="defs2" />
  <sodipodi:namedview
     id="base"
     pagecolor="#ffffff"
     bordercolor="#666666"
     borderopacity="1.0"
     inkscape:pageopacity="0.0"
     inkscape:pageshadow="2"
     inkscape:zoom="1.2300559"
     inkscape:cx="290.04816"
     inkscape:cy="352.93018"
     inkscape:document-units="mm"
     inkscape:current-layer="layer2"
     showgrid="false"
     inkscape:window-width="1920"
     inkscape:window-height="1016"
     inkscape:window-x="0"
     inkscape:window-y="27"
     inkscape:window-maximized="1" />
  <metadata
     id="metadata5">
    <rdf:RDF>
      <cc:Work
         rdf:about="">
        <dc:format>image/svg+xml</dc:format>
        <dc:type
           rdf:resource="http://purl.org/dc/dcmitype/StillImage" />
        <dc:title />
      </cc:Work>
    </rdf:RDF>
  </metadata>
  <g
     inkscape:groupmode="layer"
     id="layer2"
     inkscape:label="Layer 2">
    <path
       d="m 142.02432,231.21531 c -3.83248,0 -7.25776,-0.83835 -10.27584,-2.51506 -3.01806,-1.72462 -5.36546,-4.09596 -7.04218,-7.11403 -1.67671,-3.01807 -2.51506,-6.44335 -2.51506,-10.27583 0,-3.88038 0.83835,-7.32961 2.51506,-10.34767 1.67672,-3.01806 4.02412,-5.36546 7.04218,-7.04217 3.01808,-1.72462 6.44336,-2.58693 10.27584,-2.58693 3.78456,0 7.16194,0.86231 10.1321,2.58693 3.01808,1.67671 5.36547,4.02411 7.04217,7.04217 1.72462,3.01806 2.58694,6.46729 2.58694,10.34767 0,3.83248 -0.83837,7.25776 -2.51508,10.27583 -1.67671,3.01807 -4.0241,5.38941 -7.04218,7.11403 -2.97016,1.67671 -6.37148,2.51506 -10.20395,2.51506 z"
       style="font-style:normal;font-variant:normal;font-weight:bold;font-stretch:normal;font-size:50.55459976px;line-height:1.25;font-family:Comfortaa;-inkscape-font-specification:'Comfortaa, Bold';font-variant-ligatures:normal;font-variant-caps:normal;font-variant-numeric:normal;font-feature-settings:normal;text-align:start;letter-spacing:0px;word-spacing:0px;writing-mode:lr-tb;text-anchor:start;fill:#8db7f0;fill-opacity:1;stroke:none;stroke-width:1.79647315;stroke-opacity:1"
       id="path851-1-0"
       inkscape:connector-curvature="0"
       sodipodi:nodetypes="scssscsccsccs" />
    <path
       d="m 115.47971,230.90256 c -3.83248,0 -7.25776,-0.83835 -10.27584,-2.51506 -3.01806,-1.72462 -5.365452,-4.09596 -7.042172,-7.11403 -1.676712,-3.01807 -2.515062,-6.44335 -2.515062,-10.27583 0,-3.88038 0.83835,-7.32961 2.515062,-10.34767 1.67672,-3.01807 4.024112,-5.36546 7.042172,-7.04217 3.01808,-1.72462 6.44336,-2.58693 10.27584,-2.58693 3.78456,0 7.16194,0.86231 10.1321,2.58693 3.01808,1.67671 5.36547,4.0241 7.04218,7.04217 1.72462,3.01806 2.58694,6.46729 2.58694,10.34767 0,3.83248 -0.83837,7.25776 -2.51508,10.27583 -1.67672,3.01807 -4.02411,5.38941 -7.04219,7.11403 -2.97016,1.67671 -6.37148,2.51506 -10.20395,2.51506 z"
       style="font-style:normal;font-variant:normal;font-weight:bold;font-stretch:normal;font-size:50.55459976px;line-height:1.25;font-family:Comfortaa;-inkscape-font-specification:'Comfortaa, Bold';font-variant-ligatures:normal;font-variant-caps:normal;font-variant-numeric:normal;font-feature-settings:normal;text-align:start;letter-spacing:0px;word-spacing:0px;writing-mode:lr-tb;text-anchor:start;fill:#8db7f0;fill-opacity:1;stroke:none;stroke-width:1.79647315;stroke-opacity:1"
       id="path851-1-5-3"
       inkscape:connector-curvature="0"
       sodipodi:nodetypes="scssscsccsccs" />
    <path
       d="m 53.267437,231.4502 c -3.83248,0 -7.25776,-0.83835 -10.27583,-2.51507 -3.01806,-1.72461 -5.36545,-4.09595 -7.04217,-7.11403 -1.67671,-3.01806 -2.51506,-6.44334 -2.51506,-10.27582 0,-3.88038 0.83835,-7.32961 2.51506,-10.34768 1.67672,-3.01806 4.02411,-5.36546 7.04217,-7.04217 3.01807,-1.72461 6.44335,-2.58693 10.27583,-2.58693 3.78456,0 7.16194,0.86232 10.1321,2.58693 3.01808,1.67671 5.36547,4.02411 7.04217,7.04217 1.72462,3.01807 2.58694,6.4673 2.58694,10.34768 0,3.83248 -0.83837,7.25776 -2.51508,10.27582 -1.67671,3.01808 -4.02409,5.38942 -7.04218,7.11403 -2.97016,1.67672 -6.37148,2.51507 -10.20395,2.51507 z"
       style="font-style:normal;font-variant:normal;font-weight:bold;font-stretch:normal;font-size:50.55459976px;line-height:1.25;font-family:Comfortaa;-inkscape-font-specification:'Comfortaa, Bold';font-variant-ligatures:normal;font-variant-caps:normal;font-variant-numeric:normal;font-feature-settings:normal;text-align:start;letter-spacing:0px;word-spacing:0px;writing-mode:lr-tb;text-anchor:start;fill:#8db7f0;fill-opacity:1;stroke:none;stroke-width:1.79647315;stroke-opacity:1"
       id="path851-1-5-5-4-9"
       inkscape:connector-curvature="0"
       sodipodi:nodetypes="scssscsccsccs" />
    <text
       xml:space="preserve"
       style="font-style:normal;font-variant:normal;font-weight:normal;font-stretch:normal;font-size:10.58333302px;line-height:1.25;font-family:'Latin Modern Math';-inkscape-font-specification:'Latin Modern Math';letter-spacing:0px;word-spacing:0px;fill:#000000;fill-opacity:1;stroke:none;stroke-width:0.26458332"
       x="146.02963"
       y="269.8241"
       id="text1062"><tspan
         sodipodi:role="line"
         id="tspan1060"
         x="146.02963"
         y="269.8241"
         style="stroke-width:0.26458332">#8db7f0ff</tspan></text>
    <path
       d="m 144.99108,146.38954 c -3.83249,0 -7.25777,-0.83835 -10.27584,-2.51506 -3.01806,-1.72462 -5.36546,-4.09596 -7.04218,-7.11403 -1.67671,-3.01807 -2.51506,-6.44335 -2.51506,-10.27583 0,-3.88038 0.83835,-7.32961 2.51506,-10.34767 1.67672,-3.01806 4.02412,-5.36546 7.04218,-7.04217 3.01807,-1.72462 6.44335,-2.58693 10.27584,-2.58693 3.78456,0 7.16194,0.86231 10.1321,2.58693 3.01808,1.67671 5.36546,4.02411 7.04217,7.04217 1.72461,3.01806 2.58694,6.46729 2.58694,10.34767 0,3.83248 -0.83838,7.25776 -2.51509,10.27583 -1.6767,3.01807 -4.02409,5.38941 -7.04217,7.11403 -2.97016,1.67671 -6.37149,2.51506 -10.20395,2.51506 z"
       style="font-style:normal;font-variant:normal;font-weight:bold;font-stretch:normal;font-size:50.55459976px;line-height:1.25;font-family:Comfortaa;-inkscape-font-specification:'Comfortaa, Bold';font-variant-ligatures:normal;font-variant-caps:normal;font-variant-numeric:normal;font-feature-settings:normal;text-align:start;letter-spacing:0px;word-spacing:0px;writing-mode:lr-tb;text-anchor:start;fill:#7eae0e;fill-opacity:1;stroke:none;stroke-width:1.79647315;stroke-opacity:1"
       id="path851-1-0-0"
       inkscape:connector-curvature="0"
       sodipodi:nodetypes="scssscsccsccs" />
    <path
       d="m 114.3596,146.93718 c -3.83248,0 -7.25776,-0.83835 -10.27584,-2.51506 -3.01806,-1.72462 -5.36545,-4.09596 -7.04217,-7.11403 -1.67672,-3.01807 -2.51507,-6.44335 -2.51507,-10.27583 0,-3.88038 0.83835,-7.32961 2.51507,-10.34767 1.67672,-3.01807 4.02411,-5.36546 7.04217,-7.04217 3.01808,-1.72462 6.44336,-2.58693 10.27584,-2.58693 3.78456,0 7.16194,0.86231 10.1321,2.58693 3.01808,1.67671 5.36547,4.0241 7.04218,7.04217 1.72462,3.01806 2.58693,6.46729 2.58693,10.34767 0,3.83248 -0.83836,7.25776 -2.51507,10.27583 -1.67672,3.01807 -4.02411,5.38941 -7.04219,7.11403 -2.97016,1.67671 -6.37148,2.51506 -10.20395,2.51506 z"
       style="font-style:normal;font-variant:normal;font-weight:bold;font-stretch:normal;font-size:50.55459976px;line-height:1.25;font-family:Comfortaa;-inkscape-font-specification:'Comfortaa, Bold';font-variant-ligatures:normal;font-variant-caps:normal;font-variant-numeric:normal;font-feature-settings:normal;text-align:start;letter-spacing:0px;word-spacing:0px;writing-mode:lr-tb;text-anchor:start;fill:#7eae0e;fill-opacity:1;stroke:none;stroke-width:1.79647315;stroke-opacity:1"
       id="path851-1-5-3-8"
       inkscape:connector-curvature="0"
       sodipodi:nodetypes="scssscsccsccs" />
    <path
       inkscape:connector-curvature="0"
       style="font-style:normal;font-variant:normal;font-weight:bold;font-stretch:normal;font-size:50.55459976px;line-height:1.25;font-family:Comfortaa;-inkscape-font-specification:'Comfortaa, Bold';font-variant-ligatures:normal;font-variant-caps:normal;font-variant-numeric:normal;font-feature-settings:normal;text-align:start;letter-spacing:0px;word-spacing:0px;writing-mode:lr-tb;text-anchor:start;fill:#7eae0e;fill-opacity:1;stroke:none;stroke-width:1.79647315;stroke-opacity:1"
       d="m 70.65408,95.219483 c -1.92181,0 -3.53795,0.54809 -4.84828,1.64487 -1.22298,1.09674 -1.83451,2.54624 -1.83451,4.348047 v 18.66604 c -0.62132,2.04259 -0.9338,4.24419 -0.9338,6.60632 0,3.83248 0.83838,7.25779 2.51509,10.27585 1.67672,3.01808 4.02389,5.38917 7.04195,7.11378 3.01808,1.67672 6.44338,2.51509 10.27586,2.51509 3.83247,0 7.23387,-0.83837 10.20403,-2.51509 3.01808,-1.72461 5.36525,-4.0957 7.04196,-7.11378 1.67671,-3.01806 2.51509,-6.44337 2.51509,-10.27585 0,-3.88038 -0.8623,-7.32963 -2.58692,-10.34769 -1.6767,-3.01806 -4.02388,-5.36575 -7.04196,-7.04246 -2.97015,-1.72462 -6.34764,-2.58693 -10.1322,-2.58693 -1.95038,0 -3.79456,0.22462 -5.53403,0.67128 v -5.96656 c 0,-1.801807 -0.61155,-3.251307 -1.83451,-4.348047 -1.223,-1.09678 -2.8386,-1.64487 -4.84777,-1.64487 z"
       id="path851-1-5-5-0-5" />
    <path
       d="m 50.55982,147.48482 c -3.83248,0 -7.25776,-0.83835 -10.27583,-2.51507 -3.01806,-1.72461 -5.36545,-4.09595 -7.04217,-7.11403 -1.676706,-3.01806 -2.515056,-6.44334 -2.515056,-10.27582 0,-3.88038 0.83835,-7.32961 2.515056,-10.34768 1.67672,-3.01806 4.02411,-5.36546 7.04217,-7.04217 3.01807,-1.72461 6.44335,-2.58693 10.27583,-2.58693 3.78456,0 7.16194,0.86232 10.1321,2.58693 3.01808,1.67671 5.36547,4.02411 7.04218,7.04217 1.72461,3.01807 2.58693,6.4673 2.58693,10.34768 0,3.83248 -0.83837,7.25776 -2.51508,10.27582 -1.67671,3.01808 -4.02409,5.38942 -7.04218,7.11403 -2.97016,1.67672 -6.37148,2.51507 -10.20395,2.51507 z"
       style="font-style:normal;font-variant:normal;font-weight:bold;font-stretch:normal;font-size:50.55459976px;line-height:1.25;font-family:Comfortaa;-inkscape-font-specification:'Comfortaa, Bold';font-variant-ligatures:normal;font-variant-caps:normal;font-variant-numeric:normal;font-feature-settings:normal;text-align:start;letter-spacing:0px;word-spacing:0px;writing-mode:lr-tb;text-anchor:start;fill:#7eae0e;fill-opacity:1;stroke:none;stroke-width:1.79647315;stroke-opacity:1"
       id="path851-1-5-5-4-9-0"
       inkscape:connector-curvature="0"
       sodipodi:nodetypes="scssscsccsccs" />
    <text
       xml:space="preserve"
       style="font-style:normal;font-variant:normal;font-weight:normal;font-stretch:normal;font-size:50.55459976px;line-height:1.25;font-family:'Latin Modern Math';-inkscape-font-specification:'Latin Modern Math';letter-spacing:0px;word-spacing:0px;fill:#ffffff;fill-opacity:1;stroke:none;stroke-width:1.26386499"
       x="32.711838"
       y="140.6895"
       id="text823-2-6"><tspan
         sodipodi:role="line"
         id="tspan821-5-4"
         x="32.711838"
         y="140.6895"
         style="font-style:normal;font-variant:normal;font-weight:bold;font-stretch:normal;font-size:50.55459976px;font-family:Comfortaa;-inkscape-font-specification:'Comfortaa, Bold';font-variant-ligatures:normal;font-variant-caps:normal;font-variant-numeric:normal;font-feature-settings:normal;text-align:start;writing-mode:lr-tb;text-anchor:start;fill:#ffffff;fill-opacity:1;stroke-width:1.26386499">ebso</tspan></text>
    <path
       d="m 142.59007,242.66276 c -3.51302,0 -6.65279,-0.54823 -9.41929,-1.64469 -2.76651,-1.1278 -4.91825,-2.67853 -6.45522,-4.65214 -1.53694,-1.97362 -2.30541,-4.21355 -2.30541,-6.71977 0,-2.53752 0.76847,-4.79309 2.30541,-6.76672 1.53697,-1.97362 3.68871,-3.50867 6.45522,-4.60514 2.7665,-1.12779 5.90627,-1.69169 9.41929,-1.69169 3.46911,0 6.56498,0.5639 9.28759,1.69169 2.7665,1.09647 4.91821,2.63152 6.45515,4.60514 1.58088,1.97363 2.37133,4.2292 2.37133,6.76672 0,2.50622 -0.76849,4.74615 -2.30543,6.71977 -1.53696,1.97361 -3.6887,3.52434 -6.4552,4.65214 -2.72258,1.09646 -5.84041,1.64469 -9.35344,1.64469 z"
       style="font-style:normal;font-variant:normal;font-weight:bold;font-stretch:normal;font-size:50.55459976px;line-height:1.25;font-family:Comfortaa;-inkscape-font-specification:'Comfortaa, Bold';font-variant-ligatures:normal;font-variant-caps:normal;font-variant-numeric:normal;font-feature-settings:normal;text-align:start;letter-spacing:0px;word-spacing:0px;writing-mode:lr-tb;text-anchor:start;fill:#8db7f0;fill-opacity:1;stroke:none;stroke-width:1.39088082;stroke-opacity:1"
       id="path851-1-0-3"
       inkscape:connector-curvature="0"
       sodipodi:nodetypes="scssscsccsccs" />
    <rect
       style="opacity:0;fill:#8db7f0;fill-opacity:1;fill-rule:evenodd;stroke:#000000;stroke-width:560;stroke-miterlimit:4;stroke-dasharray:none;stroke-dashoffset:0;stroke-opacity:1"
       id="rect4652"
       width="24.633245"
       height="31.010378"
       x="182.68616"
       y="182.08653" />
    <rect
       style="opacity:0;fill:#8db7f0;fill-opacity:1;fill-rule:evenodd;stroke:#000000;stroke-width:560;stroke-miterlimit:4;stroke-dasharray:none;stroke-dashoffset:0;stroke-opacity:1"
       id="rect4654"
       width="20.506863"
       height="25.008371"
       x="183.81152"
       y="192.96518" />
    <rect
       style="opacity:0;fill:#8db7f0;fill-opacity:1;fill-rule:evenodd;stroke:#000000;stroke-width:560;stroke-miterlimit:4;stroke-dasharray:none;stroke-dashoffset:0;stroke-opacity:1"
       id="rect4656"
       width="37.762642"
       height="33.886345"
       x="179.81018"
       y="174.20889" />
    <rect
       style="opacity:0;fill:#8db7f0;fill-opacity:1;fill-rule:evenodd;stroke:#000000;stroke-width:560;stroke-miterlimit:4;stroke-dasharray:none;stroke-dashoffset:0;stroke-opacity:1"
       id="rect839"
       width="33.61359"
       height="33.157295"
       x="169.58891"
       y="156.30963" />
    <rect
       style="opacity:0;fill:#8db7f0;fill-opacity:1;fill-rule:evenodd;stroke:#000000;stroke-width:560;stroke-miterlimit:4;stroke-dasharray:none;stroke-dashoffset:0;stroke-opacity:1"
       id="rect841"
       width="21.608114"
       height="19.388794"
       x="185.71127"
       y="162.69774" />
    <rect
       style="opacity:0;fill:#8db7f0;fill-opacity:1;fill-rule:evenodd;stroke:#000000;stroke-width:560;stroke-miterlimit:4;stroke-dasharray:none;stroke-dashoffset:0;stroke-opacity:1"
       id="rect841-2"
       width="21.608114"
       height="19.388794"
       x="194.67993"
       y="173.08023" />
    <rect
       style="opacity:0;fill:#8db7f0;fill-opacity:1;fill-rule:evenodd;stroke:#000000;stroke-width:560;stroke-miterlimit:4;stroke-dasharray:none;stroke-dashoffset:0;stroke-opacity:1"
       id="rect873"
       width="30.723717"
       height="59.774399"
       x="192.85986"
       y="156.61382" />
    <path
       style="fill:#8db7f0;fill-opacity:1;stroke:none;stroke-width:0.2660524px;stroke-linecap:butt;stroke-linejoin:miter;stroke-opacity:1"
       d="m 161.49282,214.74106 -0.83938,15.61386 -28.38237,3.28949 z"
       id="path875"
       inkscape:connector-curvature="0"
       sodipodi:nodetypes="cccc" />
  </g>
  <g
     inkscape:label="Layer 1"
     inkscape:groupmode="layer"
     id="layer1">
    <text
       xml:space="preserve"
       style="font-style:normal;font-variant:normal;font-weight:normal;font-stretch:normal;font-size:10.58333302px;line-height:1.25;font-family:'Latin Modern Math';-inkscape-font-specification:'Latin Modern Math';letter-spacing:0px;word-spacing:0px;fill:#000000;fill-opacity:1;stroke:none;stroke-width:0.26458332"
       x="27.3606"
       y="53.973503"
       id="text817"><tspan
         sodipodi:role="line"
         id="tspan815"
         x="27.3606"
         y="63.826588"
         style="stroke-width:0.26458332" /></text>
    <ellipse
       style="opacity:0;vector-effect:none;fill:#ff53ff;fill-opacity:0;fill-rule:evenodd;stroke:none;stroke-width:560;stroke-linecap:butt;stroke-linejoin:miter;stroke-miterlimit:4;stroke-dasharray:none;stroke-dashoffset:0;stroke-opacity:1"
       id="path819"
       cx="35.048798"
       cy="36.872196"
       rx="32.85825"
       ry="31.489155" />
    <flowRoot
       xml:space="preserve"
       id="flowRoot843"
       style="font-style:normal;font-variant:normal;font-weight:normal;font-stretch:normal;font-size:40px;line-height:1.25;font-family:'Latin Modern Math';-inkscape-font-specification:'Latin Modern Math';letter-spacing:0px;word-spacing:0px;fill:#000000;fill-opacity:1;stroke:none"
       transform="scale(0.26458333)"><flowRegion
         id="flowRegion845"><rect
           id="rect847"
           width="490.5452"
           height="71.408478"
           x="-109.69998"
           y="387.73679" /></flowRegion><flowPara
         id="flowPara849" /></flowRoot>    <path
       d="m 84.460219,230.53344 c -3.832484,0 -7.257764,-0.83835 -10.275844,-2.51506 -3.01806,-1.72462 -5.365452,-4.09596 -7.042172,-7.11403 -1.676712,-3.01807 -2.515062,-6.44335 -2.515062,-10.27583 0,-3.88038 0.83835,-7.32961 2.515062,-10.34767 1.67672,-3.01807 4.024112,-5.36546 7.042172,-7.04217 3.01808,-1.72462 6.44336,-2.58693 10.275844,-2.58693 3.78456,0 7.16194,0.86231 10.1321,2.58693 3.01808,1.67671 5.36547,4.0241 7.042191,7.04217 1.72462,3.01806 2.58694,6.46729 2.58694,10.34767 0,3.83248 -0.83837,7.25776 -2.51508,10.27583 -1.67673,3.01807 -4.024121,5.38941 -7.042201,7.11403 -2.97016,1.67671 -6.37148,2.51506 -10.20395,2.51506 z"
       style="font-style:normal;font-variant:normal;font-weight:bold;font-stretch:normal;font-size:50.55459976px;line-height:1.25;font-family:Comfortaa;-inkscape-font-specification:'Comfortaa, Bold';font-variant-ligatures:normal;font-variant-caps:normal;font-variant-numeric:normal;font-feature-settings:normal;text-align:start;letter-spacing:0px;word-spacing:0px;writing-mode:lr-tb;text-anchor:start;fill:#8db7f0;fill-opacity:1;stroke:none;stroke-width:1.79647315;stroke-opacity:1"
       id="path851-1-5-3-2"
       inkscape:connector-curvature="0"
       sodipodi:nodetypes="scssscsccsccs" />
    <text
       xml:space="preserve"
       style="font-style:normal;font-variant:normal;font-weight:normal;font-stretch:normal;font-size:50.55459976px;line-height:1.25;font-family:'Latin Modern Math';-inkscape-font-specification:'Latin Modern Math';letter-spacing:0px;word-spacing:0px;fill:#ffffff;fill-opacity:1;stroke:none;stroke-width:1.26386499"
       x="38.081497"
       y="224.65488"
       id="text823-2"><tspan
         sodipodi:role="line"
         id="tspan821-5"
         x="38.081497"
         y="224.65488"
         style="font-style:normal;font-variant:normal;font-weight:bold;font-stretch:normal;font-size:50.55459976px;font-family:Comfortaa;-inkscape-font-specification:'Comfortaa, Bold';font-variant-ligatures:normal;font-variant-caps:normal;font-variant-numeric:normal;font-feature-settings:normal;text-align:start;writing-mode:lr-tb;text-anchor:start;fill:#ffffff;fill-opacity:1;stroke-width:1.26386499"
         dx="0 1.699818 0.28330299">sorg</tspan></text>
  </g>
</svg>
